<mxfile host="Electron" modified="2023-08-29T14:57:26.011Z" agent="Mozilla/5.0 (Windows NT 10.0; Win64; x64) AppleWebKit/537.36 (KHTML, like Gecko) draw.io/21.6.5 Chrome/114.0.5735.243 Electron/25.3.1 Safari/537.36" etag="OoKaeoKyNXz_yofZ9uD_" version="21.6.5" type="device">
  <diagram id="R2lEEEUBdFMjLlhIrx00" name="Page-1">
    <mxGraphModel dx="978" dy="582" grid="1" gridSize="10" guides="1" tooltips="1" connect="1" arrows="1" fold="1" page="1" pageScale="1" pageWidth="850" pageHeight="1100" math="0" shadow="0" extFonts="Permanent Marker^https://fonts.googleapis.com/css?family=Permanent+Marker">
      <root>
        <mxCell id="0" />
        <mxCell id="1" parent="0" />
        <mxCell id="5n9DnabvHOIzad0tQ0xk-1" value="&lt;b&gt;JESÚS ALBERTO DOMÍNGUEZ CHARRIS&lt;/b&gt;" style="text;html=1;align=center;verticalAlign=middle;resizable=0;points=[];autosize=1;strokeColor=none;fillColor=none;" parent="1" vertex="1">
          <mxGeometry x="570" y="30" width="260" height="30" as="geometry" />
        </mxCell>
        <mxCell id="WU8Xq_cLeQHDQ70CtlRt-14" value="&lt;b&gt;BASES DE DATOS / #63487 / UNIDAD 1&lt;/b&gt;" style="text;html=1;align=center;verticalAlign=middle;resizable=0;points=[];autosize=1;strokeColor=none;fillColor=none;" parent="1" vertex="1">
          <mxGeometry x="40" y="30" width="250" height="30" as="geometry" />
        </mxCell>
        <mxCell id="uftVvxgdCpTY96h_22EA-1" value="Medicamentos" style="whiteSpace=wrap;html=1;align=center;" vertex="1" parent="1">
          <mxGeometry x="110" y="230" width="100" height="40" as="geometry" />
        </mxCell>
        <mxCell id="uftVvxgdCpTY96h_22EA-7" style="edgeStyle=orthogonalEdgeStyle;rounded=0;orthogonalLoop=1;jettySize=auto;html=1;exitX=0;exitY=0.5;exitDx=0;exitDy=0;entryX=0;entryY=0.5;entryDx=0;entryDy=0;endArrow=none;endFill=0;" edge="1" parent="1" source="uftVvxgdCpTY96h_22EA-2" target="uftVvxgdCpTY96h_22EA-1">
          <mxGeometry relative="1" as="geometry" />
        </mxCell>
        <mxCell id="uftVvxgdCpTY96h_22EA-2" value="Nombre" style="ellipse;whiteSpace=wrap;html=1;align=center;fontStyle=4;" vertex="1" parent="1">
          <mxGeometry x="40" y="160" width="100" height="40" as="geometry" />
        </mxCell>
        <mxCell id="uftVvxgdCpTY96h_22EA-6" style="edgeStyle=orthogonalEdgeStyle;rounded=0;orthogonalLoop=1;jettySize=auto;html=1;exitX=0;exitY=0.5;exitDx=0;exitDy=0;entryX=0;entryY=0.5;entryDx=0;entryDy=0;endArrow=none;endFill=0;" edge="1" parent="1" source="uftVvxgdCpTY96h_22EA-3" target="uftVvxgdCpTY96h_22EA-1">
          <mxGeometry relative="1" as="geometry" />
        </mxCell>
        <mxCell id="uftVvxgdCpTY96h_22EA-3" value="Tipo" style="ellipse;whiteSpace=wrap;html=1;align=center;" vertex="1" parent="1">
          <mxGeometry x="40" y="100" width="100" height="40" as="geometry" />
        </mxCell>
        <mxCell id="uftVvxgdCpTY96h_22EA-9" style="edgeStyle=orthogonalEdgeStyle;rounded=0;orthogonalLoop=1;jettySize=auto;html=1;exitX=0;exitY=0.5;exitDx=0;exitDy=0;entryX=0.5;entryY=0;entryDx=0;entryDy=0;endArrow=none;endFill=0;" edge="1" parent="1" source="uftVvxgdCpTY96h_22EA-4" target="uftVvxgdCpTY96h_22EA-1">
          <mxGeometry relative="1" as="geometry" />
        </mxCell>
        <mxCell id="uftVvxgdCpTY96h_22EA-4" value="Fabricante" style="ellipse;whiteSpace=wrap;html=1;align=center;dashed=1;" vertex="1" parent="1">
          <mxGeometry x="190" y="160" width="100" height="40" as="geometry" />
        </mxCell>
        <mxCell id="uftVvxgdCpTY96h_22EA-8" style="edgeStyle=orthogonalEdgeStyle;rounded=0;orthogonalLoop=1;jettySize=auto;html=1;exitX=0;exitY=0.5;exitDx=0;exitDy=0;entryX=0.5;entryY=0;entryDx=0;entryDy=0;endArrow=none;endFill=0;" edge="1" parent="1" source="uftVvxgdCpTY96h_22EA-5" target="uftVvxgdCpTY96h_22EA-1">
          <mxGeometry relative="1" as="geometry" />
        </mxCell>
        <mxCell id="uftVvxgdCpTY96h_22EA-5" value="Fórmula química" style="ellipse;whiteSpace=wrap;html=1;align=center;" vertex="1" parent="1">
          <mxGeometry x="190" y="100" width="100" height="40" as="geometry" />
        </mxCell>
        <mxCell id="uftVvxgdCpTY96h_22EA-27" style="edgeStyle=orthogonalEdgeStyle;rounded=0;orthogonalLoop=1;jettySize=auto;html=1;exitX=1;exitY=0.5;exitDx=0;exitDy=0;entryX=0.5;entryY=1;entryDx=0;entryDy=0;endArrow=none;endFill=0;" edge="1" parent="1" source="uftVvxgdCpTY96h_22EA-10" target="uftVvxgdCpTY96h_22EA-25">
          <mxGeometry relative="1" as="geometry" />
        </mxCell>
        <mxCell id="uftVvxgdCpTY96h_22EA-37" style="edgeStyle=orthogonalEdgeStyle;rounded=0;orthogonalLoop=1;jettySize=auto;html=1;exitX=1;exitY=0.75;exitDx=0;exitDy=0;entryX=0.5;entryY=1;entryDx=0;entryDy=0;endArrow=none;endFill=0;" edge="1" parent="1" source="uftVvxgdCpTY96h_22EA-10" target="uftVvxgdCpTY96h_22EA-36">
          <mxGeometry relative="1" as="geometry" />
        </mxCell>
        <mxCell id="uftVvxgdCpTY96h_22EA-10" value="Fábrica de medicamentos" style="whiteSpace=wrap;html=1;align=center;" vertex="1" parent="1">
          <mxGeometry x="110" y="430" width="100" height="40" as="geometry" />
        </mxCell>
        <mxCell id="uftVvxgdCpTY96h_22EA-13" style="edgeStyle=orthogonalEdgeStyle;rounded=0;orthogonalLoop=1;jettySize=auto;html=1;exitX=0.5;exitY=0;exitDx=0;exitDy=0;entryX=0.5;entryY=1;entryDx=0;entryDy=0;endArrow=none;endFill=0;" edge="1" parent="1" source="uftVvxgdCpTY96h_22EA-12" target="uftVvxgdCpTY96h_22EA-1">
          <mxGeometry relative="1" as="geometry" />
        </mxCell>
        <mxCell id="uftVvxgdCpTY96h_22EA-14" style="edgeStyle=orthogonalEdgeStyle;rounded=0;orthogonalLoop=1;jettySize=auto;html=1;exitX=0.5;exitY=1;exitDx=0;exitDy=0;entryX=0.5;entryY=0;entryDx=0;entryDy=0;endArrow=classic;endFill=1;startArrow=none;startFill=0;" edge="1" parent="1" source="uftVvxgdCpTY96h_22EA-12" target="uftVvxgdCpTY96h_22EA-10">
          <mxGeometry relative="1" as="geometry" />
        </mxCell>
        <mxCell id="uftVvxgdCpTY96h_22EA-12" value="Crear" style="shape=rhombus;perimeter=rhombusPerimeter;whiteSpace=wrap;html=1;align=center;" vertex="1" parent="1">
          <mxGeometry x="100" y="320" width="120" height="60" as="geometry" />
        </mxCell>
        <mxCell id="uftVvxgdCpTY96h_22EA-19" style="edgeStyle=orthogonalEdgeStyle;rounded=0;orthogonalLoop=1;jettySize=auto;html=1;exitX=0;exitY=0.5;exitDx=0;exitDy=0;entryX=0;entryY=0.5;entryDx=0;entryDy=0;endArrow=none;endFill=0;" edge="1" parent="1" source="uftVvxgdCpTY96h_22EA-15" target="uftVvxgdCpTY96h_22EA-10">
          <mxGeometry relative="1" as="geometry" />
        </mxCell>
        <mxCell id="uftVvxgdCpTY96h_22EA-15" value="RUT" style="ellipse;whiteSpace=wrap;html=1;align=center;fontStyle=4;" vertex="1" parent="1">
          <mxGeometry x="110" y="490" width="100" height="40" as="geometry" />
        </mxCell>
        <mxCell id="uftVvxgdCpTY96h_22EA-20" style="edgeStyle=orthogonalEdgeStyle;rounded=0;orthogonalLoop=1;jettySize=auto;html=1;exitX=0;exitY=0.5;exitDx=0;exitDy=0;entryX=0;entryY=0.5;entryDx=0;entryDy=0;endArrow=none;endFill=0;" edge="1" parent="1" source="uftVvxgdCpTY96h_22EA-16" target="uftVvxgdCpTY96h_22EA-10">
          <mxGeometry relative="1" as="geometry" />
        </mxCell>
        <mxCell id="uftVvxgdCpTY96h_22EA-16" value="Teléfonos" style="ellipse;shape=doubleEllipse;margin=3;whiteSpace=wrap;html=1;align=center;" vertex="1" parent="1">
          <mxGeometry x="110" y="540" width="100" height="40" as="geometry" />
        </mxCell>
        <mxCell id="uftVvxgdCpTY96h_22EA-21" style="edgeStyle=orthogonalEdgeStyle;rounded=0;orthogonalLoop=1;jettySize=auto;html=1;exitX=0;exitY=0.5;exitDx=0;exitDy=0;entryX=0;entryY=0.5;entryDx=0;entryDy=0;endArrow=none;endFill=0;" edge="1" parent="1" source="uftVvxgdCpTY96h_22EA-17" target="uftVvxgdCpTY96h_22EA-10">
          <mxGeometry relative="1" as="geometry" />
        </mxCell>
        <mxCell id="uftVvxgdCpTY96h_22EA-17" value="Dirección" style="ellipse;whiteSpace=wrap;html=1;align=center;" vertex="1" parent="1">
          <mxGeometry x="110" y="590" width="100" height="40" as="geometry" />
        </mxCell>
        <mxCell id="uftVvxgdCpTY96h_22EA-22" style="edgeStyle=orthogonalEdgeStyle;rounded=0;orthogonalLoop=1;jettySize=auto;html=1;exitX=0;exitY=0.5;exitDx=0;exitDy=0;entryX=0;entryY=0.5;entryDx=0;entryDy=0;endArrow=none;endFill=0;" edge="1" parent="1" source="uftVvxgdCpTY96h_22EA-18" target="uftVvxgdCpTY96h_22EA-10">
          <mxGeometry relative="1" as="geometry" />
        </mxCell>
        <mxCell id="uftVvxgdCpTY96h_22EA-18" value="Nombre" style="ellipse;whiteSpace=wrap;html=1;align=center;" vertex="1" parent="1">
          <mxGeometry x="110" y="640" width="100" height="40" as="geometry" />
        </mxCell>
        <mxCell id="uftVvxgdCpTY96h_22EA-31" style="edgeStyle=orthogonalEdgeStyle;rounded=0;orthogonalLoop=1;jettySize=auto;html=1;exitX=0;exitY=0.5;exitDx=0;exitDy=0;entryX=0;entryY=0.5;entryDx=0;entryDy=0;endArrow=none;endFill=0;" edge="1" parent="1" source="uftVvxgdCpTY96h_22EA-23" target="uftVvxgdCpTY96h_22EA-24">
          <mxGeometry relative="1" as="geometry" />
        </mxCell>
        <mxCell id="uftVvxgdCpTY96h_22EA-60" style="edgeStyle=orthogonalEdgeStyle;rounded=0;orthogonalLoop=1;jettySize=auto;html=1;exitX=1;exitY=0.5;exitDx=0;exitDy=0;entryX=0.5;entryY=0;entryDx=0;entryDy=0;endArrow=none;endFill=0;" edge="1" parent="1" source="uftVvxgdCpTY96h_22EA-23" target="uftVvxgdCpTY96h_22EA-58">
          <mxGeometry relative="1" as="geometry" />
        </mxCell>
        <mxCell id="uftVvxgdCpTY96h_22EA-23" value="Droguerías" style="whiteSpace=wrap;html=1;align=center;" vertex="1" parent="1">
          <mxGeometry x="425" y="250" width="100" height="40" as="geometry" />
        </mxCell>
        <mxCell id="uftVvxgdCpTY96h_22EA-24" value="ID" style="ellipse;whiteSpace=wrap;html=1;align=center;fontStyle=4;" vertex="1" parent="1">
          <mxGeometry x="425" y="190" width="100" height="40" as="geometry" />
        </mxCell>
        <mxCell id="uftVvxgdCpTY96h_22EA-28" style="edgeStyle=orthogonalEdgeStyle;rounded=0;orthogonalLoop=1;jettySize=auto;html=1;exitX=0.5;exitY=0;exitDx=0;exitDy=0;entryX=0.5;entryY=1;entryDx=0;entryDy=0;endArrow=none;endFill=0;" edge="1" parent="1" source="uftVvxgdCpTY96h_22EA-25" target="uftVvxgdCpTY96h_22EA-26">
          <mxGeometry relative="1" as="geometry" />
        </mxCell>
        <mxCell id="uftVvxgdCpTY96h_22EA-29" style="edgeStyle=orthogonalEdgeStyle;rounded=0;orthogonalLoop=1;jettySize=auto;html=1;exitX=1;exitY=0.5;exitDx=0;exitDy=0;entryX=0.25;entryY=1;entryDx=0;entryDy=0;endArrow=none;endFill=0;" edge="1" parent="1" source="uftVvxgdCpTY96h_22EA-25" target="uftVvxgdCpTY96h_22EA-23">
          <mxGeometry relative="1" as="geometry" />
        </mxCell>
        <mxCell id="uftVvxgdCpTY96h_22EA-25" value="Vender" style="shape=rhombus;perimeter=rhombusPerimeter;whiteSpace=wrap;html=1;align=center;" vertex="1" parent="1">
          <mxGeometry x="260" y="320" width="120" height="60" as="geometry" />
        </mxCell>
        <mxCell id="uftVvxgdCpTY96h_22EA-26" value="Medicamento" style="ellipse;whiteSpace=wrap;html=1;align=center;dashed=1;" vertex="1" parent="1">
          <mxGeometry x="270" y="250" width="100" height="40" as="geometry" />
        </mxCell>
        <mxCell id="uftVvxgdCpTY96h_22EA-35" style="edgeStyle=orthogonalEdgeStyle;rounded=0;orthogonalLoop=1;jettySize=auto;html=1;exitX=0;exitY=0.5;exitDx=0;exitDy=0;entryX=0;entryY=0.5;entryDx=0;entryDy=0;endArrow=none;endFill=0;" edge="1" parent="1" source="uftVvxgdCpTY96h_22EA-32" target="uftVvxgdCpTY96h_22EA-23">
          <mxGeometry relative="1" as="geometry" />
        </mxCell>
        <mxCell id="uftVvxgdCpTY96h_22EA-32" value="Nombre" style="ellipse;whiteSpace=wrap;html=1;align=center;" vertex="1" parent="1">
          <mxGeometry x="425" y="140" width="100" height="40" as="geometry" />
        </mxCell>
        <mxCell id="uftVvxgdCpTY96h_22EA-34" style="edgeStyle=orthogonalEdgeStyle;rounded=0;orthogonalLoop=1;jettySize=auto;html=1;exitX=0;exitY=0.5;exitDx=0;exitDy=0;entryX=0;entryY=0.5;entryDx=0;entryDy=0;endArrow=none;endFill=0;" edge="1" parent="1" source="uftVvxgdCpTY96h_22EA-33" target="uftVvxgdCpTY96h_22EA-23">
          <mxGeometry relative="1" as="geometry" />
        </mxCell>
        <mxCell id="uftVvxgdCpTY96h_22EA-33" value="Dirección" style="ellipse;whiteSpace=wrap;html=1;align=center;" vertex="1" parent="1">
          <mxGeometry x="425" y="90" width="100" height="40" as="geometry" />
        </mxCell>
        <mxCell id="uftVvxgdCpTY96h_22EA-38" style="edgeStyle=orthogonalEdgeStyle;rounded=0;orthogonalLoop=1;jettySize=auto;html=1;exitX=1;exitY=0.5;exitDx=0;exitDy=0;entryX=0.75;entryY=1;entryDx=0;entryDy=0;endArrow=none;endFill=0;" edge="1" parent="1" source="uftVvxgdCpTY96h_22EA-36" target="uftVvxgdCpTY96h_22EA-23">
          <mxGeometry relative="1" as="geometry">
            <Array as="points">
              <mxPoint x="500" y="410" />
            </Array>
          </mxGeometry>
        </mxCell>
        <mxCell id="uftVvxgdCpTY96h_22EA-36" value="Contratar" style="shape=rhombus;perimeter=rhombusPerimeter;whiteSpace=wrap;html=1;align=center;" vertex="1" parent="1">
          <mxGeometry x="340" y="380" width="120" height="60" as="geometry" />
        </mxCell>
        <mxCell id="uftVvxgdCpTY96h_22EA-44" style="edgeStyle=orthogonalEdgeStyle;rounded=0;orthogonalLoop=1;jettySize=auto;html=1;exitX=0.5;exitY=0;exitDx=0;exitDy=0;entryX=1;entryY=1;entryDx=0;entryDy=0;endArrow=none;endFill=0;" edge="1" parent="1" source="uftVvxgdCpTY96h_22EA-39" target="uftVvxgdCpTY96h_22EA-36">
          <mxGeometry relative="1" as="geometry" />
        </mxCell>
        <mxCell id="uftVvxgdCpTY96h_22EA-39" value="No. contrato" style="ellipse;whiteSpace=wrap;html=1;align=center;" vertex="1" parent="1">
          <mxGeometry x="380" y="480" width="100" height="40" as="geometry" />
        </mxCell>
        <mxCell id="uftVvxgdCpTY96h_22EA-45" value="Receta" style="whiteSpace=wrap;html=1;align=center;" vertex="1" parent="1">
          <mxGeometry x="700" y="380" width="100" height="40" as="geometry" />
        </mxCell>
        <mxCell id="uftVvxgdCpTY96h_22EA-54" style="edgeStyle=orthogonalEdgeStyle;rounded=0;orthogonalLoop=1;jettySize=auto;html=1;exitX=1;exitY=0.5;exitDx=0;exitDy=0;entryX=1;entryY=0.5;entryDx=0;entryDy=0;endArrow=none;endFill=0;" edge="1" parent="1" source="uftVvxgdCpTY96h_22EA-47" target="uftVvxgdCpTY96h_22EA-45">
          <mxGeometry relative="1" as="geometry" />
        </mxCell>
        <mxCell id="uftVvxgdCpTY96h_22EA-47" value="Medicamento" style="ellipse;whiteSpace=wrap;html=1;align=center;dashed=1;" vertex="1" parent="1">
          <mxGeometry x="700" y="280" width="100" height="40" as="geometry" />
        </mxCell>
        <mxCell id="uftVvxgdCpTY96h_22EA-55" style="edgeStyle=orthogonalEdgeStyle;rounded=0;orthogonalLoop=1;jettySize=auto;html=1;exitX=1;exitY=0.5;exitDx=0;exitDy=0;entryX=1;entryY=0.5;entryDx=0;entryDy=0;endArrow=none;endFill=0;" edge="1" parent="1" source="uftVvxgdCpTY96h_22EA-62" target="uftVvxgdCpTY96h_22EA-45">
          <mxGeometry relative="1" as="geometry">
            <mxPoint x="800" y="250" as="sourcePoint" />
          </mxGeometry>
        </mxCell>
        <mxCell id="uftVvxgdCpTY96h_22EA-56" style="edgeStyle=orthogonalEdgeStyle;rounded=0;orthogonalLoop=1;jettySize=auto;html=1;exitX=1;exitY=0.5;exitDx=0;exitDy=0;entryX=1;entryY=0.5;entryDx=0;entryDy=0;endArrow=none;endFill=0;" edge="1" parent="1" source="uftVvxgdCpTY96h_22EA-63" target="uftVvxgdCpTY96h_22EA-45">
          <mxGeometry relative="1" as="geometry">
            <mxPoint x="800" y="200" as="sourcePoint" />
          </mxGeometry>
        </mxCell>
        <mxCell id="uftVvxgdCpTY96h_22EA-57" style="edgeStyle=orthogonalEdgeStyle;rounded=0;orthogonalLoop=1;jettySize=auto;html=1;exitX=1;exitY=0.5;exitDx=0;exitDy=0;entryX=1;entryY=0.5;entryDx=0;entryDy=0;endArrow=none;endFill=0;" edge="1" parent="1" source="uftVvxgdCpTY96h_22EA-51" target="uftVvxgdCpTY96h_22EA-45">
          <mxGeometry relative="1" as="geometry" />
        </mxCell>
        <mxCell id="uftVvxgdCpTY96h_22EA-51" value="Fecha" style="ellipse;whiteSpace=wrap;html=1;align=center;" vertex="1" parent="1">
          <mxGeometry x="700" y="130" width="100" height="40" as="geometry" />
        </mxCell>
        <mxCell id="uftVvxgdCpTY96h_22EA-53" style="edgeStyle=orthogonalEdgeStyle;rounded=0;orthogonalLoop=1;jettySize=auto;html=1;exitX=1;exitY=0.5;exitDx=0;exitDy=0;entryX=1;entryY=0.5;entryDx=0;entryDy=0;endArrow=none;endFill=0;" edge="1" parent="1" source="uftVvxgdCpTY96h_22EA-52" target="uftVvxgdCpTY96h_22EA-45">
          <mxGeometry relative="1" as="geometry" />
        </mxCell>
        <mxCell id="uftVvxgdCpTY96h_22EA-52" value="ID" style="ellipse;whiteSpace=wrap;html=1;align=center;fontStyle=4;" vertex="1" parent="1">
          <mxGeometry x="700" y="330" width="100" height="40" as="geometry" />
        </mxCell>
        <mxCell id="uftVvxgdCpTY96h_22EA-61" style="edgeStyle=orthogonalEdgeStyle;rounded=0;orthogonalLoop=1;jettySize=auto;html=1;exitX=0.5;exitY=1;exitDx=0;exitDy=0;entryX=0;entryY=0.5;entryDx=0;entryDy=0;endArrow=none;endFill=0;" edge="1" parent="1" source="uftVvxgdCpTY96h_22EA-58" target="uftVvxgdCpTY96h_22EA-45">
          <mxGeometry relative="1" as="geometry" />
        </mxCell>
        <mxCell id="uftVvxgdCpTY96h_22EA-58" value="Registrar vendibles" style="shape=rhombus;perimeter=rhombusPerimeter;whiteSpace=wrap;html=1;align=center;" vertex="1" parent="1">
          <mxGeometry x="540" y="320" width="120" height="60" as="geometry" />
        </mxCell>
        <mxCell id="uftVvxgdCpTY96h_22EA-62" value="Médico" style="ellipse;whiteSpace=wrap;html=1;align=center;dashed=1;" vertex="1" parent="1">
          <mxGeometry x="700" y="230" width="100" height="40" as="geometry" />
        </mxCell>
        <mxCell id="uftVvxgdCpTY96h_22EA-63" value="Paciente" style="ellipse;whiteSpace=wrap;html=1;align=center;dashed=1;" vertex="1" parent="1">
          <mxGeometry x="700" y="180" width="100" height="40" as="geometry" />
        </mxCell>
        <mxCell id="uftVvxgdCpTY96h_22EA-69" style="edgeStyle=orthogonalEdgeStyle;rounded=0;orthogonalLoop=1;jettySize=auto;html=1;exitX=1;exitY=0.5;exitDx=0;exitDy=0;entryX=1;entryY=0.5;entryDx=0;entryDy=0;endArrow=none;endFill=0;" edge="1" parent="1" source="uftVvxgdCpTY96h_22EA-64" target="uftVvxgdCpTY96h_22EA-65">
          <mxGeometry relative="1" as="geometry" />
        </mxCell>
        <mxCell id="uftVvxgdCpTY96h_22EA-70" style="edgeStyle=orthogonalEdgeStyle;rounded=0;orthogonalLoop=1;jettySize=auto;html=1;exitX=1;exitY=0.5;exitDx=0;exitDy=0;entryX=1;entryY=0.5;entryDx=0;entryDy=0;endArrow=none;endFill=0;" edge="1" parent="1" source="uftVvxgdCpTY96h_22EA-64" target="uftVvxgdCpTY96h_22EA-66">
          <mxGeometry relative="1" as="geometry" />
        </mxCell>
        <mxCell id="uftVvxgdCpTY96h_22EA-71" style="edgeStyle=orthogonalEdgeStyle;rounded=0;orthogonalLoop=1;jettySize=auto;html=1;exitX=1;exitY=0.5;exitDx=0;exitDy=0;entryX=1;entryY=0.5;entryDx=0;entryDy=0;endArrow=none;endFill=0;" edge="1" parent="1" source="uftVvxgdCpTY96h_22EA-64" target="uftVvxgdCpTY96h_22EA-67">
          <mxGeometry relative="1" as="geometry" />
        </mxCell>
        <mxCell id="uftVvxgdCpTY96h_22EA-72" style="edgeStyle=orthogonalEdgeStyle;rounded=0;orthogonalLoop=1;jettySize=auto;html=1;exitX=1;exitY=0.5;exitDx=0;exitDy=0;entryX=1;entryY=0.5;entryDx=0;entryDy=0;endArrow=none;endFill=0;" edge="1" parent="1" source="uftVvxgdCpTY96h_22EA-64" target="uftVvxgdCpTY96h_22EA-68">
          <mxGeometry relative="1" as="geometry" />
        </mxCell>
        <mxCell id="uftVvxgdCpTY96h_22EA-76" style="edgeStyle=orthogonalEdgeStyle;rounded=0;orthogonalLoop=1;jettySize=auto;html=1;exitX=0.5;exitY=0;exitDx=0;exitDy=0;entryX=0.5;entryY=1;entryDx=0;entryDy=0;endArrow=none;endFill=0;startArrow=classic;startFill=1;" edge="1" parent="1" source="uftVvxgdCpTY96h_22EA-64" target="uftVvxgdCpTY96h_22EA-73">
          <mxGeometry relative="1" as="geometry" />
        </mxCell>
        <mxCell id="uftVvxgdCpTY96h_22EA-92" style="edgeStyle=orthogonalEdgeStyle;rounded=0;orthogonalLoop=1;jettySize=auto;html=1;exitX=0;exitY=0.5;exitDx=0;exitDy=0;entryX=1;entryY=0.5;entryDx=0;entryDy=0;endArrow=none;endFill=0;" edge="1" parent="1" source="uftVvxgdCpTY96h_22EA-64" target="uftVvxgdCpTY96h_22EA-88">
          <mxGeometry relative="1" as="geometry" />
        </mxCell>
        <mxCell id="uftVvxgdCpTY96h_22EA-64" value="Doctor" style="whiteSpace=wrap;html=1;align=center;" vertex="1" parent="1">
          <mxGeometry x="700" y="610" width="100" height="40" as="geometry" />
        </mxCell>
        <mxCell id="uftVvxgdCpTY96h_22EA-65" value="No. documento" style="ellipse;whiteSpace=wrap;html=1;align=center;fontStyle=4;" vertex="1" parent="1">
          <mxGeometry x="700" y="670" width="100" height="40" as="geometry" />
        </mxCell>
        <mxCell id="uftVvxgdCpTY96h_22EA-66" value="Tipo documento" style="ellipse;whiteSpace=wrap;html=1;align=center;" vertex="1" parent="1">
          <mxGeometry x="700" y="720" width="100" height="40" as="geometry" />
        </mxCell>
        <mxCell id="uftVvxgdCpTY96h_22EA-67" value="Nombre" style="ellipse;whiteSpace=wrap;html=1;align=center;" vertex="1" parent="1">
          <mxGeometry x="700" y="770" width="100" height="40" as="geometry" />
        </mxCell>
        <mxCell id="uftVvxgdCpTY96h_22EA-68" value="Cargo" style="ellipse;whiteSpace=wrap;html=1;align=center;" vertex="1" parent="1">
          <mxGeometry x="700" y="820" width="100" height="40" as="geometry" />
        </mxCell>
        <mxCell id="uftVvxgdCpTY96h_22EA-77" style="edgeStyle=orthogonalEdgeStyle;rounded=0;orthogonalLoop=1;jettySize=auto;html=1;exitX=0.5;exitY=0;exitDx=0;exitDy=0;entryX=0.5;entryY=1;entryDx=0;entryDy=0;endArrow=classic;endFill=1;" edge="1" parent="1" source="uftVvxgdCpTY96h_22EA-73" target="uftVvxgdCpTY96h_22EA-45">
          <mxGeometry relative="1" as="geometry" />
        </mxCell>
        <mxCell id="uftVvxgdCpTY96h_22EA-73" value="Generar" style="shape=rhombus;perimeter=rhombusPerimeter;whiteSpace=wrap;html=1;align=center;" vertex="1" parent="1">
          <mxGeometry x="690" y="490" width="120" height="60" as="geometry" />
        </mxCell>
        <mxCell id="uftVvxgdCpTY96h_22EA-84" style="edgeStyle=orthogonalEdgeStyle;rounded=0;orthogonalLoop=1;jettySize=auto;html=1;exitX=0;exitY=0.5;exitDx=0;exitDy=0;entryX=0;entryY=0.5;entryDx=0;entryDy=0;endArrow=none;endFill=0;" edge="1" parent="1" source="uftVvxgdCpTY96h_22EA-78" target="uftVvxgdCpTY96h_22EA-83">
          <mxGeometry relative="1" as="geometry" />
        </mxCell>
        <mxCell id="uftVvxgdCpTY96h_22EA-85" style="edgeStyle=orthogonalEdgeStyle;rounded=0;orthogonalLoop=1;jettySize=auto;html=1;exitX=0;exitY=0.5;exitDx=0;exitDy=0;entryX=0;entryY=0.5;entryDx=0;entryDy=0;endArrow=none;endFill=0;" edge="1" parent="1" source="uftVvxgdCpTY96h_22EA-78" target="uftVvxgdCpTY96h_22EA-81">
          <mxGeometry relative="1" as="geometry" />
        </mxCell>
        <mxCell id="uftVvxgdCpTY96h_22EA-86" style="edgeStyle=orthogonalEdgeStyle;rounded=0;orthogonalLoop=1;jettySize=auto;html=1;exitX=0;exitY=0.5;exitDx=0;exitDy=0;entryX=0;entryY=0.5;entryDx=0;entryDy=0;endArrow=none;endFill=0;" edge="1" parent="1" source="uftVvxgdCpTY96h_22EA-78" target="uftVvxgdCpTY96h_22EA-80">
          <mxGeometry relative="1" as="geometry" />
        </mxCell>
        <mxCell id="uftVvxgdCpTY96h_22EA-87" style="edgeStyle=orthogonalEdgeStyle;rounded=0;orthogonalLoop=1;jettySize=auto;html=1;exitX=0;exitY=0.5;exitDx=0;exitDy=0;entryX=0;entryY=0.5;entryDx=0;entryDy=0;endArrow=none;endFill=0;" edge="1" parent="1" source="uftVvxgdCpTY96h_22EA-78" target="uftVvxgdCpTY96h_22EA-79">
          <mxGeometry relative="1" as="geometry" />
        </mxCell>
        <mxCell id="uftVvxgdCpTY96h_22EA-78" value="Paciente" style="whiteSpace=wrap;html=1;align=center;" vertex="1" parent="1">
          <mxGeometry x="380" y="610" width="100" height="40" as="geometry" />
        </mxCell>
        <mxCell id="uftVvxgdCpTY96h_22EA-79" value="No. documento" style="ellipse;whiteSpace=wrap;html=1;align=center;fontStyle=4;" vertex="1" parent="1">
          <mxGeometry x="380" y="670" width="100" height="40" as="geometry" />
        </mxCell>
        <mxCell id="uftVvxgdCpTY96h_22EA-80" value="Tipo documento" style="ellipse;whiteSpace=wrap;html=1;align=center;" vertex="1" parent="1">
          <mxGeometry x="380" y="720" width="100" height="40" as="geometry" />
        </mxCell>
        <mxCell id="uftVvxgdCpTY96h_22EA-81" value="Nombre" style="ellipse;whiteSpace=wrap;html=1;align=center;" vertex="1" parent="1">
          <mxGeometry x="380" y="770" width="100" height="40" as="geometry" />
        </mxCell>
        <mxCell id="uftVvxgdCpTY96h_22EA-83" value="Información médica" style="ellipse;whiteSpace=wrap;html=1;align=center;" vertex="1" parent="1">
          <mxGeometry x="380" y="820" width="100" height="40" as="geometry" />
        </mxCell>
        <mxCell id="uftVvxgdCpTY96h_22EA-91" style="edgeStyle=orthogonalEdgeStyle;rounded=0;orthogonalLoop=1;jettySize=auto;html=1;exitX=0;exitY=0.5;exitDx=0;exitDy=0;entryX=1;entryY=0.5;entryDx=0;entryDy=0;endArrow=none;endFill=0;" edge="1" parent="1" source="uftVvxgdCpTY96h_22EA-88" target="uftVvxgdCpTY96h_22EA-78">
          <mxGeometry relative="1" as="geometry">
            <mxPoint x="500" y="630" as="targetPoint" />
          </mxGeometry>
        </mxCell>
        <mxCell id="uftVvxgdCpTY96h_22EA-88" value="Recomendar medicamento" style="shape=rhombus;perimeter=rhombusPerimeter;whiteSpace=wrap;html=1;align=center;" vertex="1" parent="1">
          <mxGeometry x="530" y="600" width="120" height="60" as="geometry" />
        </mxCell>
        <mxCell id="uftVvxgdCpTY96h_22EA-93" style="edgeStyle=orthogonalEdgeStyle;rounded=0;orthogonalLoop=1;jettySize=auto;html=1;exitX=0.5;exitY=1;exitDx=0;exitDy=0;entryX=0.5;entryY=0;entryDx=0;entryDy=0;endArrow=none;endFill=0;" edge="1" parent="1" source="uftVvxgdCpTY96h_22EA-89" target="uftVvxgdCpTY96h_22EA-88">
          <mxGeometry relative="1" as="geometry" />
        </mxCell>
        <mxCell id="uftVvxgdCpTY96h_22EA-89" value="Medicamento" style="ellipse;whiteSpace=wrap;html=1;align=center;dashed=1;" vertex="1" parent="1">
          <mxGeometry x="540" y="530" width="100" height="40" as="geometry" />
        </mxCell>
        <mxCell id="uftVvxgdCpTY96h_22EA-95" style="edgeStyle=orthogonalEdgeStyle;rounded=0;orthogonalLoop=1;jettySize=auto;html=1;exitX=0;exitY=0.5;exitDx=0;exitDy=0;entryX=0;entryY=0.5;entryDx=0;entryDy=0;endArrow=none;endFill=0;" edge="1" parent="1" source="uftVvxgdCpTY96h_22EA-96" target="uftVvxgdCpTY96h_22EA-23">
          <mxGeometry relative="1" as="geometry">
            <mxPoint x="425" y="60" as="sourcePoint" />
          </mxGeometry>
        </mxCell>
        <mxCell id="uftVvxgdCpTY96h_22EA-96" value="Medicamentos" style="ellipse;shape=doubleEllipse;margin=3;whiteSpace=wrap;html=1;align=center;" vertex="1" parent="1">
          <mxGeometry x="425" y="40" width="100" height="40" as="geometry" />
        </mxCell>
        <mxCell id="uftVvxgdCpTY96h_22EA-100" style="edgeStyle=orthogonalEdgeStyle;rounded=0;orthogonalLoop=1;jettySize=auto;html=1;exitX=0;exitY=0.5;exitDx=0;exitDy=0;entryX=1;entryY=0.5;entryDx=0;entryDy=0;endArrow=none;endFill=0;" edge="1" parent="1" source="uftVvxgdCpTY96h_22EA-97" target="uftVvxgdCpTY96h_22EA-96">
          <mxGeometry relative="1" as="geometry" />
        </mxCell>
        <mxCell id="uftVvxgdCpTY96h_22EA-97" value="Vendibles" style="ellipse;whiteSpace=wrap;html=1;align=center;dashed=1;" vertex="1" parent="1">
          <mxGeometry x="580" y="80" width="100" height="40" as="geometry" />
        </mxCell>
        <mxCell id="uftVvxgdCpTY96h_22EA-99" style="edgeStyle=orthogonalEdgeStyle;rounded=0;orthogonalLoop=1;jettySize=auto;html=1;exitX=0;exitY=0.5;exitDx=0;exitDy=0;entryX=1;entryY=0.5;entryDx=0;entryDy=0;endArrow=none;endFill=0;" edge="1" parent="1" source="uftVvxgdCpTY96h_22EA-98" target="uftVvxgdCpTY96h_22EA-96">
          <mxGeometry relative="1" as="geometry" />
        </mxCell>
        <mxCell id="uftVvxgdCpTY96h_22EA-98" value="No vendibles" style="ellipse;whiteSpace=wrap;html=1;align=center;dashed=1;" vertex="1" parent="1">
          <mxGeometry x="580" y="140" width="100" height="40" as="geometry" />
        </mxCell>
        <mxCell id="uftVvxgdCpTY96h_22EA-101" value="Uno" style="text;html=1;align=center;verticalAlign=middle;resizable=0;points=[];autosize=1;strokeColor=none;fillColor=none;" vertex="1" parent="1">
          <mxGeometry x="90" y="385" width="50" height="30" as="geometry" />
        </mxCell>
        <mxCell id="uftVvxgdCpTY96h_22EA-102" value="A muchos" style="text;html=1;align=center;verticalAlign=middle;resizable=0;points=[];autosize=1;strokeColor=none;fillColor=none;" vertex="1" parent="1">
          <mxGeometry x="80" y="285" width="80" height="30" as="geometry" />
        </mxCell>
        <mxCell id="uftVvxgdCpTY96h_22EA-103" value="Uno" style="text;html=1;align=center;verticalAlign=middle;resizable=0;points=[];autosize=1;strokeColor=none;fillColor=none;" vertex="1" parent="1">
          <mxGeometry x="680" y="430" width="50" height="30" as="geometry" />
        </mxCell>
        <mxCell id="uftVvxgdCpTY96h_22EA-104" value="A uno" style="text;html=1;align=center;verticalAlign=middle;resizable=0;points=[];autosize=1;strokeColor=none;fillColor=none;" vertex="1" parent="1">
          <mxGeometry x="675" y="560" width="50" height="30" as="geometry" />
        </mxCell>
      </root>
    </mxGraphModel>
  </diagram>
</mxfile>
